<svg width="112" height="151" viewBox="0 0 112 151" fill="none" xmlns="http://www.w3.org/2000/svg">
<path d="M111.878 67.4503V72.9177C111.878 100.345 89.7775 122.969 61.5523 125.627V140.248H84.3558C87.4802 140.248 90.032 142.663 90.032 145.625C90.032 148.584 87.4802 151 84.3558 151H27.5236C24.3975 151 21.8458 148.584 21.8458 145.625C21.8458 142.663 24.3975 140.248 27.5236 140.248H50.1664V125.597C22.0383 122.879 0 100.285 0 72.9177V67.4503C0 64.4908 2.55177 62.0733 5.67619 62.0733C8.80227 62.0733 11.354 64.4908 11.354 67.4503V72.9177C11.354 96.2075 31.3496 115.146 55.9397 115.146C80.5282 115.146 100.525 96.2075 100.525 72.9177V67.4503C100.525 64.4908 103.076 62.0733 106.202 62.0733C109.328 62.0733 111.878 64.4607 111.878 67.4503ZM55.9397 104.393C73.7352 104.393 88.1818 90.71 88.1818 73.8546V30.5389C88.1818 13.6835 73.7352 0 55.9397 0C38.1426 0 23.696 13.6835 23.696 30.5389V73.8546C23.696 90.71 38.1426 104.393 55.9397 104.393Z" fill="#AD5249"/>
</svg>
