<svg width="211" height="275" viewBox="0 0 211 275" fill="none" xmlns="http://www.w3.org/2000/svg">
<path d="M161.878 191.45V196.918C161.878 224.345 139.777 246.969 111.552 249.627V264.248H134.356C137.48 264.248 140.032 266.663 140.032 269.625C140.032 272.584 137.48 275 134.356 275H77.5236C74.3975 275 71.8458 272.584 71.8458 269.625C71.8458 266.663 74.3975 264.248 77.5236 264.248H100.166V249.597C72.0383 246.879 50 224.285 50 196.918V191.45C50 188.491 52.5518 186.073 55.6762 186.073C58.8023 186.073 61.354 188.491 61.354 191.45V196.918C61.354 220.207 81.3496 239.146 105.94 239.146C130.528 239.146 150.525 220.207 150.525 196.918V191.45C150.525 188.491 153.076 186.073 156.202 186.073C159.328 186.073 161.878 188.461 161.878 191.45ZM105.94 228.393C123.735 228.393 138.182 214.71 138.182 197.855V154.539C138.182 137.683 123.735 124 105.94 124C88.1426 124 73.696 137.683 73.696 154.539V197.855C73.696 214.71 88.1426 228.393 105.94 228.393Z" fill="#AD5249"/>
<mask id="mask0_1138_1258" style="mask-type:luminance" maskUnits="userSpaceOnUse" x="27" y="101" width="159" height="33">
<path d="M27 101H185.281V133.69H27V101Z" fill="white"/>
</mask>
<g mask="url(#mask0_1138_1258)">
<path d="M91.6544 150.203C91.2997 150.062 90.6388 149.503 90.1853 148.965C89.0514 147.618 89.0243 145.392 90.1252 144.084C92.0576 141.789 100.619 138.712 105.592 138.524C108.187 138.43 108.697 138.524 113.008 139.851C120.167 142.065 122.73 143.797 122.733 146.427C122.733 148.579 120.882 150.502 118.803 150.504C118.254 150.504 116.725 150.067 115.403 149.536C108.065 146.577 104.448 146.528 97.1725 149.296C93.988 150.505 92.8581 150.692 91.6544 150.203ZM71.7472 123.4C70.3071 122.679 69.4252 121.027 69.7005 119.56C70.1152 117.349 71.9313 115.839 77.4145 113.143C82.9752 110.408 87.9796 108.638 93.5326 107.45C95.5735 107.012 98.1455 106.437 99.2502 106.169C100.787 105.797 102.493 105.71 106.513 105.791C111.011 105.884 112.411 106.037 116.271 106.882C123.929 108.555 128.323 110.055 134.673 113.17C138.253 114.924 139.328 115.612 140.623 116.98C141.995 118.434 142.203 118.818 142.203 119.921C142.203 121.795 141.517 122.869 139.937 123.471C138.14 124.16 137.282 123.909 131.68 121.064C126.639 118.502 120.392 116.323 114.985 115.24C112.079 114.658 110.474 114.536 105.894 114.542C101.057 114.542 99.8259 114.658 96.4437 115.374C90.7357 116.587 86.0782 118.207 80.9905 120.752C76.4241 123.035 74.2455 123.941 73.3307 123.941C73.0555 123.941 72.3422 123.696 71.7472 123.4ZM48.8862 95.2901C47.6496 94.6718 47.0391 93.6484 47.0313 92.187C47.0197 89.8902 48.923 87.9656 54.3984 84.7269C69.2838 75.9217 86.3612 70.7874 103.421 69.9888C117.698 69.3201 137.774 74.123 152.006 81.6141C164.073 87.9637 167.083 91.2702 163.899 94.6698C162.205 96.4801 159.809 96.0266 154.954 92.9759C134.896 80.3737 111.046 75.7569 89.0941 80.2264C78.1995 82.4437 66.9812 86.8686 57.453 92.7084C52.2606 95.889 50.898 96.2999 48.8862 95.2901ZM27.9459 67.2676C26.2655 66.0485 27.7152 62.1042 30.7349 59.6718C34.5803 56.5765 46.3277 50.1669 54.3209 46.8041C71.1561 39.7219 92.1603 35.5141 108.286 35.9948C129.224 36.6208 151.02 42.5091 169.702 52.5877C179.346 57.7917 182.738 60.2998 184.118 63.2458C185.707 66.6435 184.826 67.9053 181.031 67.6591C178.497 67.4982 177.9 67.2191 170.632 62.8078C163.156 58.2705 153.537 53.8766 144.627 50.9305C124.577 44.3038 104.388 42.8366 84.3629 46.5502C69.1965 49.3625 53.8596 55.2043 40.8019 63.1392C33.6636 67.4769 33.5899 67.5099 30.9791 67.6475C29.1611 67.7425 28.4866 67.6611 27.9459 67.2676Z" fill="#AD5249"/>
</g>
</svg>
