<svg width="211" height="275" viewBox="0 0 211 275" fill="none" xmlns="http://www.w3.org/2000/svg">
<path d="M161.878 191.45V196.918C161.878 224.345 139.777 246.969 111.552 249.627V264.248H134.356C137.48 264.248 140.032 266.663 140.032 269.625C140.032 272.584 137.48 275 134.356 275H77.5236C74.3975 275 71.8458 272.584 71.8458 269.625C71.8458 266.663 74.3975 264.248 77.5236 264.248H100.166V249.597C72.0383 246.879 50 224.285 50 196.918V191.45C50 188.491 52.5518 186.073 55.6762 186.073C58.8023 186.073 61.354 188.491 61.354 191.45V196.918C61.354 220.207 81.3496 239.146 105.94 239.146C130.528 239.146 150.525 220.207 150.525 196.918V191.45C150.525 188.491 153.076 186.073 156.202 186.073C159.328 186.073 161.878 188.461 161.878 191.45ZM105.94 228.393C123.735 228.393 138.182 214.71 138.182 197.855V154.539C138.182 137.683 123.735 124 105.94 124C88.1426 124 73.696 137.683 73.696 154.539V197.855C73.696 214.71 88.1426 228.393 105.94 228.393Z" fill="#AD5249"/>
<mask id="mask0_1138_1260" style="mask-type:luminance" maskUnits="userSpaceOnUse" x="26" y="60" width="159" height="33">
<path d="M26.2974 60.6561H184.578V92.9833H26.2974V60.6561Z" fill="white"/>
</mask>
<g mask="url(#mask0_1138_1260)">
<path d="M90.9518 174.973C90.5971 174.83 89.9362 174.273 89.4826 173.733C88.3488 172.387 88.3217 170.16 89.4226 168.852C91.3549 166.557 99.916 163.479 104.889 163.291C107.485 163.198 107.994 163.291 112.305 164.619C119.465 166.834 122.027 168.567 122.031 171.195C122.031 173.347 120.18 175.27 118.1 175.271C117.552 175.271 116.022 174.835 114.701 174.304C107.363 171.347 103.746 171.298 96.4698 174.064C93.2854 175.273 92.1554 175.459 90.9518 174.973ZM71.0446 148.168C69.6045 147.447 68.7226 145.795 68.9978 144.328C69.4126 142.119 71.2287 140.609 76.7119 137.911C82.2725 135.176 87.277 133.408 92.8299 132.218C94.8708 131.782 97.4428 131.205 98.5476 130.937C100.085 130.567 101.79 130.478 105.81 130.559C110.309 130.652 111.708 130.807 115.569 131.65C123.227 133.323 127.621 134.825 133.97 137.938C137.55 139.694 138.626 140.382 139.92 141.75C141.293 143.202 141.5 143.586 141.5 144.691C141.5 146.563 140.814 147.639 139.234 148.241C137.438 148.927 136.579 148.677 130.978 145.832C125.936 143.272 119.689 141.093 114.282 140.01C111.377 139.426 109.772 139.304 105.192 139.31C100.354 139.31 99.1232 139.426 95.7411 140.142C90.0331 141.355 85.3756 142.975 80.2878 145.52C75.7214 147.803 73.5429 148.71 72.6281 148.708C72.3529 148.708 71.6396 148.464 71.0446 148.168ZM48.1835 120.06C46.947 119.44 46.3364 118.416 46.3287 116.955C46.317 114.66 48.2204 112.734 53.6958 109.497C68.5811 100.69 85.6586 95.5553 102.719 94.7568C116.995 94.09 137.071 98.8929 151.303 106.382C163.371 112.732 166.381 116.038 163.196 119.44C161.502 121.248 159.107 120.795 154.251 117.744C134.193 105.144 110.343 100.527 88.3914 104.994C77.4968 107.212 66.2785 111.637 56.7504 117.476C51.5579 120.659 50.1954 121.07 48.1835 120.06ZM27.2432 92.0355C25.5628 90.8164 27.0126 86.8741 30.0323 84.4397C33.8777 81.3464 45.6251 74.9348 53.6182 71.572C70.4534 64.4899 91.4577 60.284 107.583 60.7646C128.522 61.3887 150.317 67.277 168.999 77.3576C178.644 82.5597 182.035 85.0677 183.415 88.0157C185.005 91.4114 184.123 92.6732 180.328 92.429C177.795 92.2662 177.198 91.9871 169.929 87.5757C162.454 83.0384 152.835 78.6465 143.925 75.7004C123.874 69.0718 103.686 67.6045 83.6603 71.3181C68.4939 74.1324 53.1569 79.9722 40.0993 87.9072C32.9609 92.2449 32.8873 92.2797 30.2765 92.4174C28.4585 92.5104 27.784 92.429 27.2432 92.0375V92.0355Z" fill="#AD5249"/>
</g>
<mask id="mask1_1138_1260" style="mask-type:luminance" maskUnits="userSpaceOnUse" x="26" y="80" width="159" height="33">
<path d="M26.4683 80.9664H184.749V112.171H26.4683V80.9664Z" fill="white"/>
</mask>
<g mask="url(#mask1_1138_1260)">
<path d="M91.1227 162.32C90.768 162.177 90.1071 161.621 89.6535 161.082C88.5197 159.735 88.4926 157.508 89.5935 156.2C91.5258 153.907 100.087 150.829 105.06 150.639C107.656 150.546 108.165 150.639 112.476 151.966C119.636 154.182 122.198 155.915 122.202 158.543C122.202 160.694 120.351 162.617 118.271 162.621C117.723 162.621 116.193 162.185 114.871 161.652C107.533 158.694 103.917 158.646 96.6407 161.411C93.4563 162.621 92.3263 162.807 91.1227 162.32ZM71.2155 135.515C69.7754 134.794 68.8935 133.143 69.1687 131.675C69.5835 129.466 71.3996 127.956 76.8828 125.258C82.4434 122.523 87.4479 120.756 93.0008 119.566C95.0417 119.13 97.6137 118.552 98.7185 118.284C100.255 117.914 101.961 117.825 105.981 117.907C110.479 118 111.879 118.155 115.74 118.998C123.398 120.67 127.791 122.173 134.141 125.285C137.721 127.041 138.797 127.729 140.091 129.098C141.464 130.549 141.671 130.933 141.671 132.038C141.671 133.91 140.985 134.986 139.405 135.589C137.608 136.275 136.75 136.025 131.148 133.18C126.107 130.619 119.86 128.441 114.453 127.357C111.547 126.774 109.943 126.652 105.363 126.658C100.525 126.658 99.2941 126.774 95.912 127.489C90.204 128.702 85.5465 130.325 80.4587 132.867C75.8923 135.151 73.7138 136.058 72.799 136.056C72.5238 136.056 71.8105 135.812 71.2155 135.515ZM48.3544 107.407C47.1179 106.787 46.5073 105.764 46.4996 104.304C46.4879 102.008 48.3912 100.081 53.8667 96.8442C68.752 88.037 85.8295 82.9027 102.889 82.1042C117.166 81.4374 137.242 86.2403 151.474 93.7295C163.542 100.079 166.552 103.386 163.367 106.787C161.673 108.597 159.277 108.142 154.422 105.091C134.364 92.491 110.514 87.8742 88.5623 92.3417C77.6677 94.561 66.4494 98.9839 56.9213 104.824C51.7288 108.006 50.3663 108.417 48.3544 107.407ZM27.4141 79.3829C25.7337 78.1638 27.1835 74.2215 30.2032 71.7871C34.0486 68.6938 45.796 62.2822 53.7891 58.9194C70.6243 51.8392 91.6286 47.6314 107.754 48.112C128.693 48.7361 150.488 54.6244 169.17 64.705C178.815 69.9071 182.206 72.4151 183.586 75.3631C185.176 78.7588 184.294 80.0206 180.499 79.7764C177.966 79.6136 177.369 79.3345 170.1 74.9231C162.625 70.3858 153.005 65.9939 144.096 63.0478C124.045 56.4192 103.857 54.9519 83.8312 58.6655C68.6648 61.4798 53.3278 67.3196 40.2702 75.2546C33.1318 79.5922 33.0582 79.6271 30.4474 79.7647C28.6294 79.8578 27.9549 79.7764 27.4141 79.3849V79.3829Z" fill="#AD5249"/>
</g>
<mask id="mask2_1138_1260" style="mask-type:luminance" maskUnits="userSpaceOnUse" x="27" y="101" width="159" height="33">
<path d="M27 101H185.281V133.69H27V101Z" fill="white"/>
</mask>
<g mask="url(#mask2_1138_1260)">
<path d="M91.6544 150.203C91.2997 150.062 90.6388 149.503 90.1853 148.965C89.0514 147.618 89.0243 145.392 90.1252 144.084C92.0576 141.789 100.619 138.712 105.592 138.524C108.187 138.43 108.697 138.524 113.008 139.851C120.167 142.065 122.73 143.797 122.733 146.427C122.733 148.579 120.882 150.502 118.803 150.504C118.254 150.504 116.725 150.067 115.403 149.536C108.065 146.577 104.448 146.528 97.1725 149.296C93.988 150.505 92.8581 150.692 91.6544 150.203ZM71.7472 123.4C70.3071 122.679 69.4252 121.027 69.7005 119.56C70.1152 117.349 71.9313 115.839 77.4145 113.143C82.9752 110.408 87.9796 108.638 93.5326 107.45C95.5735 107.012 98.1455 106.437 99.2502 106.169C100.787 105.797 102.493 105.71 106.513 105.791C111.011 105.884 112.411 106.037 116.271 106.882C123.929 108.555 128.323 110.055 134.673 113.17C138.253 114.924 139.328 115.612 140.623 116.98C141.995 118.434 142.203 118.818 142.203 119.921C142.203 121.795 141.517 122.869 139.937 123.471C138.14 124.16 137.282 123.91 131.68 121.064C126.639 118.502 120.392 116.323 114.985 115.24C112.079 114.658 110.474 114.536 105.894 114.542C101.057 114.542 99.8259 114.658 96.4437 115.374C90.7357 116.587 86.0782 118.207 80.9905 120.752C76.4241 123.035 74.2455 123.941 73.3307 123.941C73.0555 123.941 72.3422 123.696 71.7472 123.4ZM48.8862 95.2901C47.6496 94.6718 47.0391 93.6484 47.0313 92.187C47.0197 89.8903 48.923 87.9656 54.3984 84.7269C69.2838 75.9217 86.3612 70.7874 103.421 69.9888C117.698 69.3202 137.774 74.123 152.006 81.6142C164.073 87.9637 167.083 91.2703 163.899 94.6699C162.205 96.4801 159.809 96.0266 154.954 92.9759C134.896 80.3737 111.046 75.7569 89.0941 80.2264C78.1995 82.4437 66.9812 86.8686 57.453 92.7084C52.2606 95.889 50.898 96.2999 48.8862 95.2901ZM27.9459 67.2676C26.2655 66.0485 27.7152 62.1043 30.7349 59.6718C34.5803 56.5765 46.3277 50.1669 54.3209 46.8041C71.1561 39.7219 92.1603 35.5141 108.286 35.9948C129.224 36.6208 151.02 42.5091 169.702 52.5877C179.346 57.7918 182.738 60.2998 184.118 63.2459C185.707 66.6435 184.826 67.9053 181.031 67.6591C178.497 67.4983 177.9 67.2192 170.632 62.8078C163.156 58.2705 153.537 53.8766 144.627 50.9305C124.577 44.3038 104.388 42.8366 84.3629 46.5502C69.1965 49.3625 53.8596 55.2043 40.8019 63.1393C33.6636 67.4769 33.5899 67.5099 30.9791 67.6475C29.1611 67.7425 28.4866 67.6611 27.9459 67.2676Z" fill="#AD5249"/>
</g>
</svg>
